/* XPM */
static char * mast_logo_xpm[] = {
"30 60 336 2",
"  	c None",
". 	c #DEAB4A",
"+ 	c #C6BDB9",
"@ 	c #E0A73E",
"# 	c #D8AF65",
"$ 	c #D8AF5A",
"% 	c #CEB894",
"& 	c #E9A018",
"* 	c #EF9C00",
"= 	c #EBA014",
"- 	c #D9B05D",
"; 	c #DCAB4C",
"> 	c #CEB589",
", 	c #ED9E0C",
"' 	c #EBA00E",
") 	c #C6BDB5",
"! 	c #C6BDB1",
"~ 	c #EF9C04",
"{ 	c #C6B594",
"] 	c #E9A219",
"^ 	c #EF9C06",
"/ 	c #CBBA9C",
"( 	c #DCAD52",
"_ 	c #D4B16F",
": 	c #EBA016",
"< 	c #EB9E10",
"[ 	c #D4B26E",
"} 	c #D8AD5E",
"| 	c #D0B782",
"1 	c #C6BEA5",
"2 	c #CEB88E",
"3 	c #CEB584",
"4 	c #DAAB56",
"5 	c #C0BDB8",
"6 	c #D6B56F",
"7 	c #E2A53A",
"8 	c #B7A48C",
"9 	c #B5A790",
"0 	c #C2AD8C",
"a 	c #BAA580",
"b 	c #B5A990",
"c 	c #CAA062",
"d 	c #B5ADA0",
"e 	c #C6AC86",
"f 	c #BDB5B1",
"g 	c #C5B18E",
"h 	c #BFAF92",
"i 	c #BDB9B9",
"j 	c #C0A783",
"k 	c #BEB5A9",
"l 	c #B9AA96",
"m 	c #B1AD9C",
"n 	c #B1A99A",
"o 	c #C2B5A4",
"p 	c #B9B9B9",
"q 	c #AFA69A",
"r 	c #ADA9A0",
"s 	c #9C8863",
"t 	c #A0947C",
"u 	c #A5885A",
"v 	c #B9B9B5",
"w 	c #B19C6F",
"x 	c #A08852",
"y 	c #98886F",
"z 	c #B7A286",
"A 	c #BDB9AD",
"B 	c #B29F76",
"C 	c #AD9A6F",
"D 	c #A99C7C",
"E 	c #BBA98A",
"F 	c #B5A584",
"G 	c #AD9054",
"H 	c #B19E75",
"I 	c #B19862",
"J 	c #B9AD94",
"K 	c #BBB5A8",
"L 	c #AD9052",
"M 	c #A09C90",
"N 	c #C2A680",
"O 	c #BDBDBD",
"P 	c #B8A789",
"Q 	c #B8B09C",
"R 	c #B2A27C",
"S 	c #B19C71",
"T 	c #AD9256",
"U 	c #AF986D",
"V 	c #A98A42",
"W 	c #BBB29F",
"X 	c #B5A98E",
"Y 	c #BAAF9A",
"Z 	c #BDB9AF",
"` 	c #A07E2B",
" .	c #B5B1B1",
"..	c #B2A27B",
"+.	c #BDB5A6",
"@.	c #BDB5A4",
"#.	c #A97B16",
"$.	c #B29F70",
"%.	c #C2BDB9",
"&.	c #AD915D",
"*.	c #AB8E4E",
"=.	c #AF9667",
"-.	c #A9A09C",
";.	c #A97B1F",
">.	c #B9B5B1",
",.	c #B09460",
"'.	c #AD8E52",
").	c #AF9867",
"!.	c #B7AC9A",
"~.	c #AA9F8F",
"{.	c #AD8021",
"].	c #C2C2BD",
"^.	c #BBA88E",
"/.	c #B2A586",
"(.	c #B09C6E",
"_.	c #B9A88C",
":.	c #B3A37C",
"<.	c #9C804E",
"[.	c #A8802F",
"}.	c #BEA986",
"|.	c #C2BDB5",
"1.	c #B5A484",
"2.	c #AF9869",
"3.	c #B3A080",
"4.	c #AF9861",
"5.	c #AD862F",
"6.	c #BBA788",
"7.	c #B7AB8C",
"8.	c #AD9258",
"9.	c #AD925A",
"0.	c #B5A481",
"a.	c #B5A48C",
"b.	c #A68640",
"c.	c #A8843C",
"d.	c #B5ADA5",
"e.	c #B5A788",
"f.	c #B9AB90",
"g.	c #A8822B",
"h.	c #AD8C3C",
"i.	c #BBAD9A",
"j.	c #B3A07C",
"k.	c #B8B09A",
"l.	c #BABABA",
"m.	c #AB7B0C",
"n.	c #A88846",
"o.	c #B9B5A0",
"p.	c #BDBDB5",
"q.	c #B39E7B",
"r.	c #A49C94",
"s.	c #AD7B00",
"t.	c #AF9248",
"u.	c #B19867",
"v.	c #A98844",
"w.	c #AF945C",
"x.	c #B39E75",
"y.	c #B19462",
"z.	c #B9AF9A",
"A.	c #9C9078",
"B.	c #B37B00",
"C.	c #A98C4E",
"D.	c #BEA98C",
"E.	c #BAA480",
"F.	c #B59F79",
"G.	c #B5A78A",
"H.	c #AD986A",
"I.	c #AD9460",
"J.	c #B7A98C",
"K.	c #A79470",
"L.	c #AF7B00",
"M.	c #B19656",
"N.	c #B1A9A0",
"O.	c #C3AA84",
"P.	c #B9B19C",
"Q.	c #BDB5A8",
"R.	c #B19860",
"S.	c #AD985E",
"T.	c #B9B5AD",
"U.	c #C8AC84",
"V.	c #B5A57E",
"W.	c #AD9869",
"X.	c #AB8C4E",
"Y.	c #A98C48",
"Z.	c #B59C6D",
"`.	c #B9B1A0",
" +	c #A7823A",
".+	c #AD925C",
"++	c #B9AF94",
"@+	c #C0BDBA",
"#+	c #BDB9AC",
"$+	c #A88436",
"%+	c #AF9C7B",
"&+	c #C0C0BD",
"*+	c #B5A080",
"=+	c #B5A88A",
"-+	c #B1986B",
";+	c #A97D1F",
">+	c #B17B00",
",+	c #B3A37D",
"'+	c #BDB9B1",
")+	c #B1ADAD",
"!+	c #AD7B02",
"~+	c #9C8456",
"{+	c #BAAFA2",
"]+	c #A0988C",
"^+	c #AF7900",
"/+	c #A9905E",
"(+	c #C6A56F",
"_+	c #B9B5A9",
":+	c #AA9A7B",
"<+	c #B17900",
"[+	c #9C906F",
"}+	c #71A69C",
"|+	c #65A294",
"1+	c #949C81",
"2+	c #ADAD9F",
"3+	c #C2C2C2",
"4+	c #AF7700",
"5+	c #769179",
"6+	c #279277",
"7+	c #008E6B",
"8+	c #00906B",
"9+	c #29925C",
"0+	c #29905E",
"a+	c #128E71",
"b+	c #38967E",
"c+	c #589E8E",
"d+	c #6BA497",
"e+	c #A4ADA8",
"f+	c #A98A48",
"g+	c #AD7900",
"h+	c #AB7700",
"i+	c #2B8C58",
"j+	c #008C6B",
"k+	c #009673",
"l+	c #009473",
"m+	c #008E6D",
"n+	c #028C6B",
"o+	c #2B9479",
"p+	c #67A596",
"q+	c #A4ACA8",
"r+	c #A88633",
"s+	c #238C5A",
"t+	c #009A75",
"u+	c #009E7C",
"v+	c #00A27E",
"w+	c #00A07B",
"x+	c #009E7A",
"y+	c #009875",
"z+	c #00906F",
"A+	c #068E6D",
"B+	c #489C86",
"C+	c #8EADA7",
"D+	c #549C8C",
"E+	c #A7790C",
"F+	c #966F08",
"G+	c #0E885C",
"H+	c #008C6D",
"I+	c #009271",
"J+	c #009675",
"K+	c #009C78",
"L+	c #00A37D",
"M+	c #00A380",
"N+	c #009E7B",
"O+	c #009878",
"P+	c #08906F",
"Q+	c #98A4A0",
"R+	c #7BA59A",
"S+	c #199071",
"T+	c #237C50",
"U+	c #064625",
"V+	c #002F14",
"W+	c #00391A",
"X+	c #007556",
"Y+	c #369052",
"Z+	c #00A580",
"`+	c #00AD84",
" @	c #1C9477",
".@	c #509C8A",
"+@	c #007B5A",
"@@	c #005033",
"#@	c #003516",
"$@	c #005C3E",
"%@	c #61944A",
"&@	c #00A07E",
"*@	c #00906D",
"=@	c #6B988C",
"-@	c #6EA297",
";@	c #109071",
">@	c #009C7C",
",@	c #008A67",
"'@	c #006544",
")@	c #005233",
"!@	c #00805E",
"~@	c #5C9450",
"{@	c #009877",
"]@	c #00A57D",
"^@	c #00926F",
"/@	c #529E8A",
"(@	c #A4B1AC",
"_@	c #409A86",
":@	c #00A480",
"<@	c #00AB84",
"[@	c #00A07D",
"}@	c #00A780",
"|@	c #009A77",
"1@	c #009475",
"2@	c #007D5C",
"3@	c #4A8E52",
"4@	c #00A782",
"5@	c #00AB82",
"6@	c #60A090",
"7@	c #8EADA6",
"8@	c #5CA292",
"9@	c #4A9886",
"0@	c #31987C",
"a@	c #028E6D",
"b@	c #00A982",
"c@	c #00A07C",
"d@	c #31947B",
"e@	c #84AAA2",
"f@	c #ADB5B1",
"g@	c #94A5A0",
"h@	c #669C90",
"i@	c #66A597",
"j@	c #69A498",
"k@	c #58A090",
"l@	c #4C9C88",
"m@	c #469884",
"n@	c #2D947C",
"o@	c #259277",
"p@	c #169277",
"q@	c #0E9075",
"r@	c #0A8E71",
"s@	c #088C6F",
"t@	c #239477",
"u@	c #7BA094",
"                    .                                       ",
"            +       @                                       ",
"            # $ % & * = - ;                                 ",
"              > , * * * ' )                                 ",
"              ! ~ * * * * {                                 ",
"                ] * * * ^ /                                 ",
"              ( _ : * < [ } |                               ",
"            1 2   3 4 5     +                               ",
"                  6 7 8                                     ",
"                      9                                     ",
"                                                            ",
"                                                            ",
"                                                            ",
"                      0 a                                   ",
"                      b c                                   ",
"                      d e                                   ",
"                      f g                                   ",
"                                                            ",
"                                                            ",
"                                                            ",
"                        h i                                 ",
"                        j k                                 ",
"                        l m                                 ",
"                        n o                                 ",
"                      p q                                   ",
"                      r s                                   ",
"                      t u v                                 ",
"            w         x y z                                 ",
"          A B         C D E                                 ",
"          F G H I J K L M N O                               ",
"          P Q R S T U V d W                                 ",
"          X Y       Z `  .                                  ",
"          ..+.  @.  p #.O                                   ",
"          $.%.&.*.=.-.;.O   >.                              ",
"        J ,.'.).  !.~.{.  ].^.                              ",
"          /.(.  _.:.<.[.    }.                              ",
"            |.1.2.3.4.5.    6.                              ",
"        7.8.9.8.0.a.b.c.    d.                              ",
"          e._.f.    g.h.                                    ",
"            i.j.k.l.m.n.                                    ",
"      o.p.      q.r.s.t.                                    ",
"      u.v.w.x.y.z.A.B.C.    D.E.                            ",
"        F.G.H.I.J.K.L.M.    N.O.                            ",
"          P.1.Q.  R.L.S.    T.U.                            ",
"      @.V.W.X.).O Y.s.Z.      i                             ",
"    `. +.+++@+#+  $+L.%+                                    ",
"    Q.&+`.*+=+-+O ;+>+,+                                    ",
"              '+)+!+>+~+      {+i                           ",
"                ]+L.^+/+      (+_+                          ",
"                :+>+<+[+  }+|+1+2+3+                        ",
"                4.L.4+5+6+7+8+9+0+a+b+c+d+e+                ",
"                f+g+h+i+j+j+k+l+m+j+j+j+7+n+o+p+q+          ",
"                r+g+g+s+j+j+t+u+v+w+u+x+y+l+z+7+A+B+C+      ",
"              D+E+h+F+G+7+j+j+j+j+H+I+J+K+x+L+M+N+O+P+Q+    ",
"          R+S+7+T+U+V+W+X+m+j+7+Y+j+j+j+j+j+H+I+Z+`+m+ @    ",
"        .@7+j+j+j+m++@@@#@$@m+j+%@m+j+j+j+j+j+z+&@Z+*@=@    ",
"    -@;@j+m+>@y+l+z+H+*@,@'@)@!@~@j+j+j+j+m+{@]@v+^@/@      ",
"(@_@8+j+j+k+v+:@<@`+[@}@v+|@1@2@3@H+j+I+J+4@5@J+7+6@        ",
"7@8@9@0@;@a@j+8+7+z+z+O+u+v+}@Z+5@<@b@4@c@I+*@d@e@          ",
"        3+f@g@h@i@j@k@l@m@b+n@o@p@q@r@s@t@c+u@              "};
