/* XPM */
static char * mast_name_xpm[] = {
"133 31 3 1",
" 	c None",
".	c #B8707C",
"+	c #49066D",
".++++++++++..              ++++++++++.....               ++ .                   +++++++++++++ +++ .    ++++++++++++++++++++++++++++..",
"  ++++++++++.              +++++++++...                  ++..                  +++++........+++++..    ++++......+++++++......+++++..",
"  + ++++++++..            ++ +++++++..                  ++++.                 +++++...       ++++..    +++...    +++++++..      +++..",
"  + +++++++++.            ++.+++++++..                  ++++..                ++++...         +++..    ++...     +++++++..      +++..",
"  + .++++++++..           + .+++++++..                 ++++++.               +++++..           ++..    + ..      +++++++..       ++..",
"  + .++++++++..          ++ .+++++++..                 ++++++..              ++++++.           ++..    + .       +++++++..       ++..",
"  + . ++++++++.          + ..+++++++..                ++++++++.              ++++++..           +..    + .       +++++++..        +..",
"  + . ++++++++..        ++ . +++++++..                ++++++++..             +++++++.           + .      .       +++++++..          .",
"  + . +++++++++.        ++.. +++++++..               +++++++++..             +++++++++          + .              +++++++..           ",
"  + .  ++++++++..      ++ .. +++++++..               ++++++++++.             +++++++++++          .              +++++++..           ",
"  + .  +++++++++.      ++..  +++++++..               + .+++++++..             ++++++++++++                       +++++++..           ",
"  + .   ++++++++..     + ..  +++++++..              ++ .++++++++.             +++++++++++++.                     +++++++..           ",
"  + .   ++++++++..    ++ .   +++++++..              + .. +++++++..             ++++++++++++++                    +++++++..           ",
"  + .    ++++++++.    ++..   +++++++..             ++ .  ++++++++.              +++++++++++++++                  +++++++..           ",
"  + .    ++++++++..  ++ ..   +++++++..             + ..   +++++++..              +++++++++++++++.                +++++++..           ",
"  + .     ++++++++.  ++..    +++++++..            ++ .    ++++++++.                ++++++++++++++.               +++++++..           ",
"  + .     ++++++++.. + ..    +++++++..            ++..    ++++++++..                ++++++++++++++.              +++++++..           ",
"  + .      ++++++++.++ .     +++++++..           ++ ..     +++++++..                  ++++++++++++..             +++++++..           ",
"  + .      ++++++++.+ ..     +++++++..           ++..      ++++++++.                    +++++++++++.             +++++++..           ",
"  + .      ++++++++++ .      +++++++..          +++++++++++++++++++..        +            +++++++++..            +++++++..           ",
"  + .       +++++++++..      +++++++..          ++++++++++++++++++++.        + .            +++++++..            +++++++..           ",
"  + .       ++++++++...      +++++++..         ++ ..........++++++++..       ++.             ++++++..            +++++++..           ",
"  + .        +++++++..       +++++++..         ++..          ++++++++.       ++..            ++++++..            +++++++..           ",
"  + .        ++++++...       +++++++..         + ..          ++++++++..      ++..             +++++..            +++++++..           ",
"  + .         +++++..        +++++++..        ++ .            ++++++++.      +++.             ++++...            +++++++..           ",
"  + .         +++++..        +++++++..        ++..            ++++++++..     ++++.            ++++..             +++++++..           ",
"  ++.          +++...        +++++++..       +++..            +++++++++.     +++++.          ++++...             +++++++..           ",
"  ++..         +++..        ++++++++..      ++++..             ++++++++..    ++++++.         +++...              ++++++++.           ",
" ++++.         ++...        +++++++++.     ++++++.            ++++++++++.    ++++++++++++++++++...              +++++++++..          ",
"++++++++        +..     ++++++++++++++++ +++++++++++       +++++++++++++++   + ......++++++++....            ++++++++++++++++        ",
"..........        .       ................ ...........       ...............   .       ........                ................      "};
