/* XPM */
static char * view_button_xpm[] = {
"35 22 8 1",
" 	c None",
".	c #D5D6D5",
"+	c #FFFFFF",
"@	c #000000",
"#	c #949594",
"$	c #9C999C",
"%	c #838183",
"&	c #C5C2C5",
".+++++++++++++++++++++++++++++++++@",
".+................................@",
".+...............................#@",
".+...............................#@",
".+......$$$$$$$$$$$$$$$$$$$......#@",
".+......$$$$$$$$$$$$$$$$$$$......#@",
".+......$$$$$$$$$$$$$$$$$$$......#@",
".+......$$%@%$$$$$$$%@$$$$$......#@",
".+......$$@$@%@@@@%@@@%$$$$......#@",
".+......$$@$$@&++@@&++@$$$$......#@",
".+......$$@$$@+++@@+++@$$$$......#@",
".+......$$%@$@+++@@+++@$$$$......#@",
".+......$$$%$%@@@%%@@@%%$$$......#@",
".+......$$$$%$$$%%%%%%%%%$$......#@",
".+......$$$$$%%%%%&%%%%&%$$......#@",
".+......$$$$$$$$%%%%$%%%$$$......#@",
".+......$$$$$$$$$$$$$$$$$$$......#@",
".+......$$$$$$$$$$$$$$$$$$$......#@",
".+...............................#@",
".+...............................#@",
".+.###############################@",
".@@@@@@@@@@@@@@@@@@@@@@@@@@@@@@@@@@"};
